<?xml version="1.0" encoding="utf-8"?>
<!-- Generator: Adobe Illustrator 24.1.2, SVG Export Plug-In . SVG Version: 6.00 Build 0)  -->
<svg height="50" version="1.1" id="Calque_1" xmlns="http://www.w3.org/2000/svg" xmlns:xlink="http://www.w3.org/1999/xlink" x="0px" y="0px"
	 viewBox="0 0 100 100" style="enable-background:new 0 0 100 100;" xml:space="preserve">
<style type="text/css">
	.st0{fill:#777BB3;}
	.st1{stroke:#FFFFFF;stroke-width:1.1719;}
</style>
<path class="st0" d="M15,0h70c8.3,0,15,6.7,15,15v70c0,8.3-6.7,15-15,15H15c-8.3,0-15-6.7-15-15V15C0,6.7,6.7,0,15,0z"/>
<g>
	<path id="a_3_" class="st1" d="M30.3,39.2H18.9c-0.3,0-0.5,0.1-0.6,0.4l-5.3,27.5c0,0.6,0.6,0.6,0.6,0.6h5.9c0.6,0,0.6-0.4,0.6-0.4
		l1.4-6.8h5.3C35,60.4,39.1,55,40,50.1S40.2,39.2,30.3,39.2z M32.8,49.7C32,53.4,29.5,55,26,55h-3.5l2.1-10.4h3.5
		C33.4,44.6,33.2,46.6,32.8,49.7z"/>
	<path class="st1" d="M53.7,60.4c-0.8,0-0.6-0.8-0.6-0.8l2.3-11.9c0-1.6,1.2-3.1-3.5-2.9h-3.5l-2.9,15.2c0,0,0,0.6-0.8,0.6h-5.7
		c-0.6,0-0.6-0.6-0.6-0.6l5.5-27.5c0,0,0-0.4,0.8-0.4h5.9c0.6,0,0.4,0.6,0.4,0.6l-1.4,6.6h5.1c7,0,8.8,3.3,8.2,7.2l-2.5,13.5
		c0,0,0,0.6-1,0.6L53.7,60.4z"/>
	<g>
		<path id="a_2_" class="st1" d="M77,39.2H65.6c-0.3,0-0.5,0.1-0.6,0.4l-5.3,27.5c0,0.6,0.6,0.6,0.6,0.6h5.9c0.6,0,0.6-0.4,0.6-0.4
			l1.4-6.8h5.3c8.2,0,12.3-5.5,13.3-10.4S86.9,39.2,77,39.2z M79.5,49.7c-0.8,3.7-3.3,5.3-6.8,5.3h-3.5l2.1-10.4h3.5
			C80.1,44.6,79.9,46.6,79.5,49.7z"/>
	</g>
</g>
</svg>
