<?xml version="1.0" encoding="utf-8"?>
<!-- Generator: Adobe Illustrator 24.1.2, SVG Export Plug-In . SVG Version: 6.00 Build 0)  -->
<svg height="50" version="1.1" id="Calque_1" xmlns="http://www.w3.org/2000/svg" xmlns:xlink="http://www.w3.org/1999/xlink" x="0px" y="0px"
	 viewBox="0 0 50 50" style="enable-background:new 0 0 50 50;" xml:space="preserve">
<style type="text/css">
	.st0{fill-rule:evenodd;clip-rule:evenodd;fill:#21759A;}
	.st1{fill-rule:evenodd;clip-rule:evenodd;fill:#FFFFFF;}
	.st2{fill:none;}
	.st3{fill-rule:evenodd;clip-rule:evenodd;fill:#1B5F7D;}
</style>
<g id="Layer_x0020_1">
	<g id="_446909456">
		<path class="st0" d="M5.6,0h39.3c3,0,5.4,2.4,5.4,5.4v39.3c0,3-2.4,5.4-5.4,5.4H5.6c-3,0-5.4-2.4-5.4-5.4V5.4C0.2,2.4,2.7,0,5.6,0
			z"/>
		<path class="st1" d="M25.9,40.8c-1.4,0-1.8,0.1-3.3-0.2l-1.8-0.4c0.2-1.1,3.5-10,4-12c0.1-0.4,0.6-1.5,0.6-1.8h0.1
			c0.1,0.3,0.8,2.1,0.9,2.5c0.1,0.3,0.2,0.6,0.3,0.8c1.1,2.6,2.1,5.7,3,8.3c0.2,0.6,0.4,1.2,0.6,1.7c-0.4,0.1-0.6,0.2-1,0.3
			C28.3,40.5,27.3,40.8,25.9,40.8z M24.5,7.4h1.6c1.1,0.1,2.3,0.2,3.6,0.6c1.6,0.4,1.8,0.6,3.1,1.1l1.3,0.7c2.1,1.3,4.2,3,5.6,5.1
			c0.4,0.6,1.3,2,1.6,2.7c1.3,3.2,1.6,4.3,1.6,8.1c0,2.7-1,6-2.4,8.3c-2.1,3.5-5.4,6.4-9.3,7.8c-1.8,0.6-3.5,0.9-5.2,1h-1.6
			c-2-0.1-4-0.6-5.9-1.3L17,40.6c-0.8-0.5-0.9-0.5-2-1.2c-3.3-2.3-5.9-6-6.9-10c-0.6-2.1-0.6-2.9-0.6-5c0-1.4,0.3-2.7,0.6-3.8
			c0.4-1.4,1.1-3.2,1.8-4.5c2.1-3.5,5.4-6.4,9.3-7.8C21,7.8,22.7,7.4,24.5,7.4z M9.4,25.7c0-2.4,0.1-4.1,1.1-6.4
			c0.1-0.2,0.1-0.4,0.3-0.6l3.7,10.2c0.6,1.8,1.3,3.5,1.8,5.2c0.4,0.8,0.6,1.7,1,2.5l0.9,2.6c-1.1-0.2-4-2.5-4.7-3.5
			c-0.4-0.6-0.7-0.7-1.3-1.6C10.7,31.8,9.4,28.7,9.4,25.7z M39.2,17.6l0.2,0.3c0.9,1.8,1.6,4.4,1.6,6.4c0,2.3-0.1,3.4-0.8,5.7
			c-0.3,0.6-0.4,1.2-0.8,1.8c-0.8,1.8-1.8,3-3.3,4.5l-1.4,1.2c-0.5,0.4-1,0.8-1.6,1.1c0.1-0.7,4.3-12.7,4.9-14.1
			c0.8-2.2,1.1-3.4,1.1-6C39.3,18.1,39.2,18,39.2,17.6z M33.1,15.9c0,3,2.8,4.5,2.8,7.9c0,1.6-0.1,1.8-0.5,3.3
			c-0.3,0.8-0.5,1.6-0.8,2.4l-1.1,3.6c-0.1,0.4-0.3,0.9-0.4,1.3c-0.2-0.1-0.6-1.8-0.8-2.1l-4.2-12.7c-0.1-0.4-0.6-1.8-0.7-2.1
			c0.4,0,1.1-0.1,1.5-0.1c0.7-0.1,0.8-0.1,0.8-0.8c0-0.3-0.2-0.6-0.5-0.6c-1.2,0-2.2,0.1-3.5,0.1h-1.7c-1.3,0-2.4-0.1-3.7-0.1
			c-0.1,0-0.4,0.3-0.4,0.7c0,0.6,0.4,0.6,0.8,0.6c0.4,0,1.2,0,1.4,0.2l2.2,5.9c0.2,0.6,0.3,0.6,0.1,1.2l-2.4,7.3
			c-0.1,0.4-0.8,2.2-0.8,2.5c-0.2-0.1-0.2-0.2-0.3-0.4l-0.5-1.6c-0.3-0.7-0.5-1.3-0.7-2.1c-0.5-1.4-1-2.8-1.5-4.2
			c-0.2-0.8-2.7-7.8-2.8-8.6c0.4,0,1.8-0.1,2.1-0.3c0.4-0.4,0.4-0.8,0-1.1c-0.3-0.3-1.1-0.1-1.5-0.1l-4.2,0.1
			c0.7-1.1,1.3-1.8,2.2-2.7c0.2-0.2,0.4-0.4,0.6-0.6c0.4-0.4,1.6-1.3,2.2-1.6c0.5-0.3,1-0.6,1.6-0.8c4.9-2.2,10.7-1.9,15.2,1.1
			c0.6,0.4,1.7,1.1,2,1.6c-0.9,0-1.4,0.3-1.9,0.8C33.5,14.4,33.1,15.1,33.1,15.9z"/>
		<line class="st2" x1="11.2" y1="35.7" x2="25.5" y2="50"/>
		<line class="st2" x1="37.9" y1="12.7" x2="50.2" y2="25"/>
		<path class="st3" d="M42.9,25.6c0,2.7-1,6-2.4,8.3c-2.1,3.5-5.4,6.4-9.3,7.8c-1.8,0.6-3.5,0.9-5.2,1h-1.6c-2-0.1-4-0.6-5.9-1.3
			L17,40.6c-0.8-0.5-0.9-0.5-2-1.2c-0.1-0.1-0.3-0.2-0.4-0.3L25.5,50h19.4l5.4-5.4V25L37.9,12.7c0.6,0.6,1.3,1.4,1.8,2.1
			c0.4,0.6,1.3,2,1.6,2.7C42.5,20.7,42.9,21.9,42.9,25.6z"/>
		<path class="st3" d="M29.8,38.3c-1-2.6-2-5.7-3-8.3l-0.3-0.8c-0.1-0.4-0.8-2.3-0.8-2.5h-0.2c0,0.3-0.4,1.4-0.6,1.8
			c-0.6,1.9-3.8,10.9-4,12l1.8,0.4c1.5,0.3,1.9,0.2,3.3,0.2c1.3,0,2.3-0.3,3.5-0.6c0.4-0.1,0.6-0.2,1-0.3
			C30.2,39.5,30,38.8,29.8,38.3z"/>
		<path class="st3" d="M16.4,34c-0.6-1.7-1.3-3.4-1.8-5.2l-3.7-10.2c-0.1,0.1-0.2,0.4-0.3,0.6c-0.9,2.3-1.1,4-1.1,6.4
			c0,3,1.3,6.1,2.8,8.3c0.6,0.9,0.8,1.1,1.3,1.6c0.8,1,3.7,3.3,4.7,3.5l-1-2.6C17,35.7,16.7,34.9,16.4,34z"/>
		<path class="st3" d="M18.4,26.2l1.5,4.2l0.7,2.1l0.5,1.6c0.1,0.2,0.1,0.3,0.3,0.4c0-0.3,0.6-2.1,0.8-2.5l2.4-7.3
			c0.2-0.6,0.1-0.6-0.1-1.2l-2.2-5.9c-0.2-0.2-1.1-0.2-1.4-0.2c-0.5-0.1-0.8-0.1-0.8-0.6c0-0.4,0.3-0.7,0.4-0.7
			c1.3,0,2.3,0.1,3.7,0.1h1.7c1.3,0,2.3-0.1,3.5-0.1c0.3,0,0.5,0.3,0.5,0.6c0,0.6-0.1,0.7-0.8,0.8c-0.4,0.1-1.1,0.1-1.5,0.1
			c0.1,0.3,0.6,1.8,0.7,2.1l4.2,12.7c0.1,0.3,0.6,1.9,0.8,2.1c0.1-0.4,0.3-0.9,0.4-1.3l1.1-3.6l0.8-2.4c0.4-1.6,0.5-1.8,0.5-3.3
			c0-3.5-2.8-5-2.8-7.9c0-0.8,0.4-1.5,0.8-1.8c0.5-0.5,1-0.8,1.9-0.8c-0.3-0.5-1.4-1.2-2-1.6c-4.5-3-10.3-3.3-15.2-1.1
			c-0.6,0.3-1.1,0.6-1.6,0.8c-0.6,0.3-1.8,1.1-2.2,1.6c-0.2,0.2-0.4,0.4-0.6,0.6c-0.8,0.8-1.5,1.6-2.2,2.7l4.2-0.1
			c0.4-0.1,1.2-0.2,1.5,0.1c0.4,0.2,0.4,0.7,0,1.1c-0.3,0.2-1.8,0.3-2.1,0.3C15.7,18.4,18.2,25.4,18.4,26.2z"/>
		<path class="st3" d="M38.2,24.5c-0.6,1.4-4.7,13.4-4.9,14.1c0.6-0.3,1.1-0.6,1.6-1.1l1.4-1.2c1.4-1.4,2.4-2.7,3.3-4.5
			c0.4-0.6,0.5-1.2,0.8-1.8c0.7-2.3,0.8-3.4,0.8-5.7c0-2.1-0.7-4.6-1.6-6.4l-0.2-0.3c0,0.4,0.1,0.5,0.1,0.9
			C39.3,21.1,39,22.3,38.2,24.5z"/>
	</g>
</g>
</svg>
